<svg xmlns="http://www.w3.org/2000/svg" enable-background="new -1095.842 1940.99 3000 3000" viewBox="-1095.842 1940.99 3000 3000" id="Customerfeedback"><path fill="#f4e1dc" d="M1579.787,4315.111H-381.807c20.702-137.852,94.958-253.213,195.676-313.028
		c37.276-22.378,78.312-37.068,121.457-42.449c26.665-110.008,72.885-209.853,133.771-293.726
		c117.217-161.34,288.969-263.063,480.348-263.063c263.488,0,489.644,192.942,587.861,468.646
		c12.408-1.537,24.944-2.704,37.629-2.704c185.583,0,335.873,182.322,335.873,407.065c0,2.278,0,4.185-0.148,6.149
		C1535.511,4288.321,1558.788,4299.737,1579.787,4315.111z" class="colordcf4e6 svgShape"></path><path fill="#e5a493" d="M481.365,4315.111h888.499c-23.451-42.32-73.282-29.2-126.929-30.328
		c-10.027-31.639-37.812-30.975-97.667-21.232c75.829-69.152,52.17-137.09-80.074-92.809
		c151.05-205.637-83.107-252.633-117.686-256.746c-43.571-5.197-243.864,26.832-137.703,240.97
		c-128.605-53.376-163.789,9.714-66.73,120.723C650.352,4280.036,539.25,4300.402,481.365,4315.111z" class="color93e5b6 svgShape"></path><path fill="#e5a493" d="M-771.47,4315.111H481.929c-81.307-18.886-249.775-41.25-325.564-42.846
		c-14.165-44.696-53.418-43.759-137.977-29.994c107.126-97.693,73.703-193.672-113.123-131.114
		c213.394-290.509-117.409-356.903-166.26-362.714c-61.554-7.341-344.514,37.906-194.538,340.426
		c-181.685-75.406-231.39,13.724-94.271,170.55C-680.797,4265.559-727.277,4280.93-771.47,4315.111z" class="color93e5b6 svgShape"></path><path fill="#f6a691" d="M847.475,2562.926V4255.4c0,75.019-60.74,135.76-135.559,135.76H-76.499
		c-75.02,0-135.76-60.741-135.76-135.76V2562.926c0-74.82,60.74-135.56,135.76-135.56h788.414
		C786.734,2427.366,847.475,2488.106,847.475,2562.926z" class="color91c4f6 svgShape"></path><path fill="#ffffff" d="M779.809,2562.997v1692.187c0,31.297-21.06,57.55-49.833,65.413c-5.787,1.627-11.867,2.52-18.098,2.52
		H-76.445c-2.67,0-5.193-0.148-7.863-0.445c-33.669-3.856-60.069-32.631-60.069-67.487V2562.997
		c0-34.709,26.401-63.631,60.069-67.487c2.67-0.297,5.193-0.445,7.863-0.445h788.322c6.231,0,12.311,0.892,18.098,2.52
		C758.748,2505.451,779.809,2531.848,779.809,2562.997z" class="colorffffff svgShape"></path><path fill="#f6a691" d="M489.816,3997.634h-344.34c-36.779,0-66.592,29.819-66.592,66.594c0,36.783,29.813,66.596,66.592,66.596
				h344.34c36.779,0,66.599-29.813,66.599-66.596C556.415,4027.453,526.596,3997.634,489.816,3997.634z" class="color91c4f6 svgShape"></path><path fill="#ffd7cd" d="M213.126 4077.266h-7.047v12.135h-12.919v-45.685h20.885c4.124 0 7.72.692 10.762 2.058 3.049 1.375 5.398 3.332 7.046 5.872 1.657 2.549 2.485 5.534 2.485 8.976 0 3.305-.773 6.191-2.321 8.649-1.539 2.458-3.751 4.379-6.619 5.772l9.851 14.357h-13.83L213.126 4077.266zM219.263 4055.66c-1.348-1.174-3.351-1.757-5.999-1.757h-7.184v13.375h7.184c2.648 0 4.652-.575 5.999-1.73 1.347-1.147 2.021-2.795 2.021-4.926C221.284 4058.492 220.61 4056.834 219.263 4055.66zM278.121 4079.414v9.987h-36.672v-45.685h35.826v9.987h-23.034v7.702h20.293v9.661h-20.293v8.348H278.121zM330.98 4043.716l-19.574 45.685h-12.728l-19.511-45.685h13.966l12.4 29.762 12.655-29.762H330.98zM333.666 4043.716h12.918v45.685h-12.918V4043.716zM392.452 4079.414v9.987H355.78v-45.685h35.825v9.987h-23.034v7.702h20.293v9.661h-20.293v8.348H392.452zM470.638 4043.716l-14.813 45.685h-13.838l-8.741-27.804-9.139 27.804h-13.83l-14.812-45.685h13.309l9.206 29.17 9.659-29.17h11.872l9.204 29.433 9.586-29.433H470.638z" class="colorcdeeff svgShape"></path><g fill="#000000" class="color000000 svgShape"><path fill="#7c2109" d="M663.904,2603.188l115.728,72.731l1.208,2.803v0.08l1.811,4.118
				c14.086,30.974,69.128,57.33,122.562,57.33c28.878,0,50.108-7.579,60.876-19.441v-42.087l-1.711-2.719l-160.671-72.815H663.904z" class="color097c3a svgShape"></path><path fill="#ff6239" d="M683.805,2740.239h51.184c39.943,0,63.741-35.941,53.562-59.56l-124.648-77.503H525.446l74.781,77.034
				C606.335,2703.83,643.864,2740.239,683.805,2740.239z" class="colorffc439 svgShape"></path><path fill="#7c2109" d="M386.974,2603.204l23.667,78.923c2.698,31.312,48.926,58.147,102.932,58.147
				c54.137,0,93.318-30.159,85.221-61.471l-73.343-75.599H386.974z" class="color097c3a svgShape"></path><path fill="#ff6239" d="M292.143,2740.239h51.186c39.942,0,73.851-25.166,71.816-48.785l-28.174-88.278H248.503l-27.001,83.36
				C219.467,2710.154,252.202,2740.239,292.143,2740.239z" class="colorffc439 svgShape"></path><path fill="#7c2109" d="M110.021,2603.204l-81.069,83.799c-8.098,31.313,38.94,53.271,92.946,53.271
				c54.139,0,97.605-24.534,100.305-55.848l26.296-81.222H110.021z" class="color097c3a svgShape"></path><path fill="#ff6239" d="M-99.52,2740.239h51.185c39.943,0,71.18-28.447,77.288-52.064l81.075-84.999H-28.427l-135.217,84.949
				C-173.824,2711.744-139.461,2740.239-99.52,2740.239z" class="colorffc439 svgShape"></path><path fill="#7c2109" d="M-330.656,2678.966v41.761c10.664,11.864,31.998,19.522,60.877,19.522
				c54.136,0,109.479-26.852,122.962-58.152l1.41-3.211v-0.086l1.206-2.883h0.101l115.633-72.731h-145.146l-155.232,72.815
				L-330.656,2678.966z" class="color097c3a svgShape"></path><path fill="#941e00" d="M780.84 2676.003v116.963c0 41.844 41.558 75.859 92.675 75.859 51.216 0 92.573-34.016 92.573-75.859v-114.244l-1.711-2.719H780.84zM410.366 2675.96v117.03c0 41.818 41.538 75.82 92.626 75.82 51.209 0 92.624-34.002 92.624-75.82v-117.03H410.366zM39.868 2675.96v117.03c0 41.818 41.541 75.82 92.627 75.82 51.211 0 92.626-34.002 92.626-75.82v-117.03H39.868z" class="color009444 svgShape"></path><path fill="#db502c" d="M595.615 2675.918v101.057c0 50.696 41.468 91.793 92.622 91.793l0 0c51.154 0 92.622-41.097 92.622-91.793v-101.057H595.615zM225.122 2776.974c0 50.696 41.468 91.793 92.623 91.793l0 0c51.151 0 92.621-41.097 92.621-91.793v-101.057H225.122V2776.974zM-145.376 2776.974c0 50.696 41.47 91.793 92.623 91.793 51.156 0 92.623-41.097 92.623-91.793v-101.057h-185.246V2776.974z" class="colordba12c svgShape"></path><path fill="#941e00" d="M-330.656,2678.966v114c0,41.844,41.557,75.859,92.674,75.859c51.218,0,92.575-34.016,92.575-75.859
				v-116.963h-183.438L-330.656,2678.966z" class="color009444 svgShape"></path><rect width="139.694" height="111.398" x="-33.581" y="2491.79" fill="#db502c" class="colordba12c svgShape"></rect><rect width="139.694" height="111.398" x="106.114" y="2491.79" fill="#941e00" class="color009444 svgShape"></rect><rect width="139.694" height="111.398" x="245.808" y="2491.79" fill="#db502c" class="colordba12c svgShape"></rect><rect width="139.694" height="111.398" x="385.503" y="2491.79" fill="#941e00" class="color009444 svgShape"></rect><rect width="139.694" height="111.398" x="525.197" y="2491.79" fill="#db502c" class="colordba12c svgShape"></rect><g fill="#000000" class="color000000 svgShape"><path fill="#941e00" d="M-173.275 2600.788v2.399h139.694V2491.79h-30.697C-124.476 2491.79-173.275 2540.589-173.275 2600.788zM695.589 2491.79h-30.697v111.397h139.694v-2.399C804.586 2540.589 755.787 2491.79 695.589 2491.79z" class="color009444 svgShape"></path></g></g><g opacity=".5" fill="#000000" class="color000000 svgShape"><path fill="#f6a691" d="M37.631,3582.208h418.294c12.105,0,21.925-9.821,21.925-21.938
			c0-12.118-9.82-21.93-21.925-21.93H37.631c-12.113,0-21.942,9.813-21.942,21.93C15.689,3572.387,25.517,3582.208,37.631,3582.208z
			" opacity=".5" class="color91c4f6 svgShape"></path><path fill="#f6a691" d="M526.594 3582.208h59.645c12.109 0 21.93-9.821 21.93-21.938 0-12.118-9.821-21.93-21.93-21.93h-59.645c-12.109 0-21.934 9.813-21.934 21.93C504.66 3572.387 514.486 3582.208 526.594 3582.208zM128.992 3772.292H37.631c-12.113 0-21.942 9.817-21.942 21.93 0 12.122 9.829 21.943 21.942 21.943h91.362c12.109 0 21.93-9.821 21.93-21.943C150.922 3782.108 141.101 3772.292 128.992 3772.292z" class="color91c4f6 svgShape"></path><path fill="#f6a691" d="M355.638,3772.292H199.671c-12.113,0-21.935,9.817-21.935,21.93
			c0,12.122,9.821,21.943,21.935,21.943h155.967c12.113,0,21.939-9.821,21.939-21.943
			C377.577,3782.108,367.751,3772.292,355.638,3772.292z" opacity=".5" class="color91c4f6 svgShape"></path><path fill="#f6a691" d="M586.239,3655.316H333.7c-12.109,0-21.93,9.82-21.93,21.93c0,12.118,9.82,21.93,21.93,21.93h252.539
			c12.109,0,21.93-9.812,21.93-21.93C608.169,3665.136,598.348,3655.316,586.239,3655.316z" class="color91c4f6 svgShape"></path><path fill="#f6a691" d="M37.631,3699.175h225.391c12.118,0,21.942-9.812,21.942-21.93
			c0-12.109-9.825-21.93-21.942-21.93H37.631c-12.113,0-21.942,9.82-21.942,21.93C15.689,3689.363,25.517,3699.175,37.631,3699.175z
			" opacity=".5" class="color91c4f6 svgShape"></path></g><g fill="#000000" class="color000000 svgShape"><path fill="#ec7354" d="M696.724,3091.392v270.027c0,21.696-20.297,39.386-45.623,39.386h-863.36v-348.801h863.36
			C676.427,3052.005,696.724,3069.696,696.724,3091.392z" opacity=".35" class="color549bec svgShape"></path><path fill="#ff6239" d="M711.902,2970.772h-954.915c-23.275,0-42.142,18.868-42.142,42.144v285.119
		c0,23.272,18.867,42.142,42.142,42.142h954.914c23.275,0,42.143-18.869,42.143-42.142v-285.121
		C754.044,2989.64,735.176,2970.772,711.902,2970.772z" class="colorffc439 svgShape"></path><polygon fill="#db502c" points="-113.303 3073.18 -130.827 3126.983 -186.864 3126.983 -187.376 3126.983 -141.662 3160.152 -159.196 3213.955 -113.303 3180.78 -68.271 3213.435 -67.582 3213.955 -85.113 3160.152 -40.423 3127.841 -40.255 3127.673 -39.392 3126.983 -95.94 3126.983" class="colordba12c svgShape"></polygon><polygon fill="#db502c" points="64.361 3073.18 46.837 3126.983 -9.2 3126.983 -9.71 3126.983 36.004 3160.152 18.471 3213.955 64.361 3180.78 109.396 3213.435 110.085 3213.955 92.551 3160.152 137.243 3127.841 137.411 3127.673 138.275 3126.983 81.726 3126.983" class="colordba12c svgShape"></polygon><polygon fill="#db502c" points="242.028 3073.18 224.505 3126.983 168.467 3126.983 167.954 3126.983 213.669 3160.152 196.138 3213.955 242.028 3180.78 287.063 3213.435 287.751 3213.955 270.219 3160.152 314.91 3127.841 315.076 3127.673 315.942 3126.983 259.392 3126.983" class="colordba12c svgShape"></polygon><polygon fill="#db502c" points="419.694 3073.18 402.169 3126.983 346.132 3126.983 345.621 3126.983 391.336 3160.152 373.802 3213.955 419.694 3180.78 464.728 3213.435 465.416 3213.955 447.885 3160.152 492.574 3127.841 492.743 3127.673 493.606 3126.983 437.057 3126.983" class="colordba12c svgShape"></polygon><polygon fill="#db502c" points="614.724 3126.983 597.358 3073.18 579.834 3126.983 523.797 3126.983 523.287 3126.983 569.002 3160.152 551.47 3213.955 597.358 3180.78 642.397 3213.435 643.084 3213.955 625.548 3160.152 670.243 3127.841 670.409 3127.673 671.274 3126.983" opacity=".25" class="colordba12c svgShape"></polygon></g><g fill="#000000" class="color000000 svgShape"><path fill="#533831" d="M1053.516,2967.493c-0.145,0.492-0.248,0.995-0.39,1.49c6.958-22.802,18.379-43.906,33.76-62.072
		c27.066-31.961,68.07-30.035,95.335-15.344c-0.036-0.027-0.072-0.053-0.108-0.081c0.075,0.043,0.139,0.094,0.213,0.132
		c1.139,0.615,2.186,1.301,3.271,1.956c8.333,4.981,15.896,11.337,22.153,18.88c7.121,8.629,12.412,18.598,17.03,28.666
		c4.699,10.042,8.527,20.42,13.954,29.775c2.74,4.637,5.824,9.062,9.622,12.759c3.732,3.662,8.27,6.828,12.754,9.838
		c18.033,12.161,39.469,18.348,60.225,25.635c10.559,3.599,20.7,8.44,30.084,14.424c9.175,6.241,17.938,13.364,24.49,22.312
		c-7.291-8.301-16.194-14.959-25.606-20.513c-9.464-5.506-19.527-9.915-29.991-13.059c-10.588-3.144-21.093-6.591-31.526-10.429
		c-10.386-3.896-20.726-8.487-30.058-14.779c-4.62-3.196-9.163-6.418-13.278-10.534c-4.076-4.063-7.302-8.823-10.111-13.702
		c-5.55-9.838-9.325-20.292-13.534-30.425c-3.624-8.729-7.826-17.2-13.11-24.975c13.992,24.223,18.982,54.219,30.475,69.16
		c26.478,34.416,78.97,30.434,122.93,62.917c45.518,33.634,50.729,114.314-7.605,161.505
		c-54.979,44.471-179.361,32.11-249.993-45.792c-45.872-50.592-63.38-108.291-58.398-160.788c-2.595,22.77-1.609,45.87,3.524,68.104
		c4.052,17.167,10.349,33.789,18.838,49.233c8.491,15.436,18.961,29.789,30.995,42.684c12.028,12.879,25.067,24.947,39.502,35.094
		c14.328,10.295,29.975,18.71,46.31,25.4c16.344,6.682,33.504,11.451,51.016,14.121c17.481,2.758,35.359,3.7,53.063,1.83
		c-35.295,5.251-71.895-0.043-105.352-12.738c-33.547-12.867-63.468-34.419-87.713-60.796
		c-24.196-26.415-42.562-58.843-49.845-94.122C1039.01,3038.087,1041.877,3001.125,1053.516,2967.493z" class="color11405c svgShape"></path><polygon fill="#d79d8e" points="1062.899 4208.173 1111.368 4308.327 1143.57 4276.651 1121.096 4185.281" class="colord7a28e svgShape"></polygon><path fill="#ff6239" d="M1142.508,4243.599c2.62-8.324,50.471,59.564,47.068,64.777c-3.404,5.213-121.156,95.56-135.833,98.69
					c-14.679,3.13-31.587-18.726-15.848-35.951c15.738-17.226,49.61-52.144,50.647-75.46c0,0-6.179-25.623-4.507-29.663
					c1.671-4.041,13.589,10.22,13.589,10.22S1136.22,4263.581,1142.508,4243.599z" class="colorffc439 svgShape"></path><path fill="#db502c" d="M1048.146,4360.057c0.269,0.92,2.417,0.901,5.222,1.808c2.833,0.929,6.379,3.207,10.031,6.467
						c7.281,6.603,12.441,13.447,13.939,12.538c1.396-0.73-1.519-9.412-9.901-17.088c-4.174-3.77-9.322-6.195-13.416-6.168
						C1049.902,4357.68,1047.894,4359.418,1048.146,4360.057z" class="colordba12c svgShape"></path><path fill="#533831" d="M1185.495,4294.559c1.844,2.257,9.466,12.674,5.832,16.584c-3.633,3.91-138.463,103.448-140.705,102.237
					c-2.242-1.211-7.557-7.91-8.963-8.909C1040.253,4403.472,1185.495,4294.559,1185.495,4294.559z" class="color11405c svgShape"></path><path fill="#db502c" d="M1093.784 4322.541c.575-6.019-12.807-9.317-14.48-7.202C1077.63 4317.454 1093.216 4328.475 1093.784 4322.541zM1084.848 4334.812c.575-6.019-12.806-9.317-14.48-7.202C1068.694 4329.725 1084.281 4340.748 1084.848 4334.812zM1074.875 4346.683c.577-6.019-12.806-9.317-14.479-7.203C1058.721 4341.595 1074.307 4352.617 1074.875 4346.683zM1123.627 4307.405c4.655 6.407 13.622 7.826 20.028 3.172 6.406-4.655 7.825-13.622 3.171-20.028-4.654-6.406-13.621-7.826-20.027-3.172C1120.392 4292.033 1118.973 4301 1123.627 4307.405z" class="colordba12c svgShape"></path><path fill="#7c3f2f" d="M1210.068,3635.049l-155.032,183.403l79.147,386.689l-64.558,40.844c0,0-194.517-399.533-176.8-435.092
			c17.718-35.559,148.824-309.061,148.824-309.061l190.71,8.633L1210.068,3635.049z" class="color2f627c svgShape"></path><path fill="#533831" d="M1210.047,3635.062l-154.977,183.362l79.119,386.686l-17.414,10.972l-77.051-373.803
			c0,0-57.411,16.302-82.855,0c-25.525-16.299,72.2-29.022,72.2-29.022s-16.221,0-21.389-11.37
			c-5.088-11.292,25.684-12.007,25.684-12.007l80.788-119.751c0,0-21.947-93.51-37.611-91.681
			c-10.416,1.272-45.801-3.737-68.145-7.235c19.322-40.315,33.237-69.338,33.237-69.338l190.758,8.586L1210.047,3635.062z" class="color11405c svgShape"></path><path fill="#d79d8e" d="M1243.524,4326.815c-0.252,3.203-0.974,52.239-2.152,65.795c-5.535,6.01-39.134,3.057-41.333-4.1
				c-2.196-7.157,0.585-65.968,0.585-65.968L1243.524,4326.815z" class="colord7a28e svgShape"></path><path fill="#ff6239" d="M1234.968,4450.652c-4.956,1.75-107.828-8.485-117.967-9.287c-10.14-0.803-3.357-36.975,28.017-35.235
				l39.378-26.92c2.217-7.197,5.074-15.137,7.324-18.27c4.067-5.599,19.395-5.094,28.671,2.253
				c4.305,3.429,5.794,10.01,5.891,16.438c9.975,1.006,17.355,2.762,17.565,8.335
				C1244.141,4395.68,1239.955,4448.904,1234.968,4450.652z" class="colorffc439 svgShape"></path><path fill="#db502c" d="M1174.294 4424.992c-.528-3.625-14.556-20.307-30.724-18.716 0 0 7.972-9.936 22.565-.238C1176.907 4413.199 1174.294 4424.992 1174.294 4424.992zM1220.653 4412.051c-.456 5.775 2.7 10.736 7.05 11.08 4.35.343 8.244-4.062 8.697-9.837.457-5.777-2.701-10.737-7.05-11.079C1225.003 4401.871 1221.109 4406.276 1220.653 4412.051zM1188.858 4404.24c-4.251-2.857-26.561-6.048-21.339-8.681 5.22-2.633 21.668 2.245 22.605 6.258C1191.06 4405.829 1188.858 4404.24 1188.858 4404.24zM1196.399 4397.151c-4.251-2.858-26.561-6.048-21.341-8.681 5.224-2.634 21.67 2.241 22.607 6.255C1198.604 4398.739 1196.399 4397.151 1196.399 4397.151zM1203.941 4390.061c-4.251-2.859-26.561-6.05-21.339-8.683 5.22-2.633 21.668 2.245 22.607 6.258C1206.143 4391.647 1203.941 4390.061 1203.941 4390.061z" class="colordba12c svgShape"></path><path fill="#533831" d="M1238.42,4441.612c0.006-0.078-45.63-1.485-71.041-3.624c-2.839-0.24-4.567-7.702-29.984-10.064
				c-17.579-1.892-23.986,3.219-24.651,3.788c-1.25,1.066-4.337,11.856,0.577,13.128c4.913,1.271,119.28,11.364,121.368,9.559
				C1238.818,4450.829,1238.42,4441.612,1238.42,4441.612z" class="color11405c svgShape"></path><polygon fill="#7c3f2f" points="1339.509 3527.834 1258.299 4351.199 1193.628 4342.558 1138.768 3660.04 1095.178 3541.332" class="color2f627c svgShape"></polygon><path fill="#533831" d="M1339.498,3527.795l-81.186,823.383l-12.961-1.749c5.089-54.309,29.5-317.188,24.412-347.722
			c-5.646-33.953-30.217-24.571-48.426-34.906c-18.13-10.418,44.689-14.234,47.471-26.877c2.864-12.721-20.753-5.248-41.507-12.802
			c-20.833-7.553,20.754-10.417,46.279-36.896c25.524-26.4,31.169-268.285,23.616-269.239c-5.805-0.716-59.875-50.095-89.853-85.878
			L1339.498,3527.795z" class="color11405c svgShape"></path><path fill="#d79d8e" d="M985.621,3178.192l-72.903,26.018l-212.561-35.102l-13.099,44.432c0,0,219.899,73.672,226.553,73.672
			c22.201,0,94.089-32.171,94.089-32.171L985.621,3178.192z" class="colord7a28e svgShape"></path><g fill="#000000" class="color000000 svgShape"><path fill="#d79d8e" d="M628.804,3196.823c-1.195-2.66,7.417-7.584,7.417-7.584s-5.058-2.783-2.509-7.727
						c1.495-2.901,6.184-4.222,6.184-4.222s-5.762-3.911-3.542-9.829c2.22-5.918,9.247-4.834,9.247-4.834s-7.121-7.281,0.89-12.899
						c5.575-3.909,8.271-4.118,12.6-2.249c6.56-1.408,19.597-2.441,24.232-0.498c8.034,3.369,14.666,13.186,16.833,22.128
						c8.728,2.685,21.671,7.448,21.671,7.448l-14.81,42.014l-19.96-5.03l-39.999-5.377
						C647.059,3208.163,632.598,3202.082,628.804,3196.823z" class="colord7a28e svgShape"></path><path fill="#d79d8e" d="M654.758,3200.312c1.142-7.094-6.723-7.78-6.723-7.78s10.823,3.182,11.855-4.305
							c1.078-7.814-11.507-9.988-11.507-9.988s14.421,1.463,16.563-4.733c1.695-4.904-12.869-11.262-12.869-11.262
							s12.445,2.09,14.559-4.178c2.284-6.775-7.543-10.589-7.543-10.589l-57.32-14.838c0,0-4.953,6.438-0.186,10.802
							c0.4,0.366,7.267,4.945,10.185,6.142c9.189,3.767,26.802,10.142,26.802,10.142s-3.444,0.084-5.654,1.392
							c-1.398,0.828-2.862,8.354-2.037,9.792c1.173,2.044,3.125,3.195,3.125,3.195s-2.615,0.072-4.256,1.796
							c-0.921,0.967-1.822,7.424-1.415,8.537c0.81,2.212,2.672,3.503,2.672,3.503s-2.773,2.545-2.697,7.365
							C628.398,3200.674,653.83,3206.073,654.758,3200.312z" class="colord7a28e svgShape"></path><path fill="#c18a7c" d="M662.084 3165.539c-.248.879-4.076.571-8.55-.687-4.475-1.258-7.903-2.99-7.655-3.869.247-.879 4.074-.572 8.55.686C658.904 3162.928 662.332 3164.659 662.084 3165.539zM654.395 3179.582c-.251.879-3.092.834-6.347-.098-3.254-.933-5.688-2.4-5.436-3.278.251-.878 3.093-.833 6.347.099C652.213 3177.238 654.647 3178.705 654.395 3179.582zM653.32 3193.828c-.241.881-3.497.755-7.273-.279-3.775-1.034-6.641-2.586-6.399-3.467.241-.881 3.497-.755 7.273.279C650.695 3191.395 653.561 3192.947 653.32 3193.828z" class="colorc18c7c svgShape"></path><path fill="#c18a7c" d="M652.829 3178.891c.165-.321 2.768.28 6.096 3.227.8.775 1.664 1.72 2.268 3.088.655 1.313.664 3.372-.053 4.864-.676 1.594-2.014 2.98-3.559 3.804-.682.414-1.775.828-2.231.963l.001.019.008.003v.001c.009.022.235.382.317.575.231.464.432.946.568 1.455.29 1.008.357 2.088.209 3.1-.037.45-.223 1.066-.575 1.702-.264.66-.829.943-1.27 1.368-.952.589-1.876.842-2.718.985-3.343.439-6.02-.082-8.279-.506-4.474-.965-7.046-2.148-6.935-2.572.116-.458 2.88-.088 7.261.257 2.156.133 4.854.323 7.37-.17.615-.138 1.147-.352 1.507-.592.048-.157.333-.202.278-.348.024-.067.131-.188.151-.555.064-.582.017-1.168-.159-1.755-.08-.295-.208-.587-.353-.876-.092-.192-.1-.187-.305-.531-.276-.35-.501-.696-.85-1.046-.985-.987-1.961-1.965-2.925-2.931 1.893-.166 3.962-.223 5.406-.597 1.035-.293 1.374-.44 2.003-.753 1.121-.552 1.903-1.339 2.376-2.237 1.069-1.767.025-3.681-1.166-5.184C654.796 3180.701 652.564 3179.301 652.829 3178.891zM699.569 3171.959c.689-.185 2.845 9.436-.881 20.742-1.877 5.558-4.733 10.151-7.33 12.966-2.556 2.868-4.702 4.062-4.977 3.705-.549-.596 5.798-7.21 9.17-17.714C699.024 3181.245 698.459 3171.995 699.569 3171.959z" class="colorc18c7c svgShape"></path><g fill="#000000" class="color000000 svgShape"><path fill="#d79d8e" d="M654.314,3177.969c-0.947-4.312-3.153-30.435-1.1-32.245c2.054-1.81,18.617-4.505,23.071-4.021
						c4.454,0.485,18.878,9.671,19.919,22.506c0,0-7.909,13.515-17.943,7.437c-10.036-6.078-13.11-12.725-13.11-12.725
						s-1.12,19.934-2.97,20.489C660.329,3179.964,654.314,3177.969,654.314,3177.969z" class="colord7a28e svgShape"></path><path fill="#c18a7c" d="M690.69,3171.684c0.106,0.137-0.461,0.812-1.854,1.557c-1.368,0.71-3.703,1.566-6.72,1.076
					c-1.486-0.234-3.084-0.836-4.598-1.766c-1.417-0.9-2.935-1.889-4.457-3.077c-1.529-1.176-3.094-2.504-4.62-4.03l-1.137-1.181
					c-0.378-0.396-0.85-0.954-0.745-0.815l-0.127-0.099c0,0,0.008,0.147,0.011,0.172l-0.01,0.32l-0.136,1.831
					c-0.196,2.458-0.43,4.981-0.777,7.57c-0.165,1.192-0.338,2.367-0.59,3.566c-0.112,0.588-0.266,1.204-0.466,1.842
					c-0.006,0.241-0.447,0.838-0.672,1.257c-0.109,0.255-0.325,0.41-0.533,0.573c-0.085,0.112-0.243,0.101-0.269,0.313l-0.346,0.183
					c-1.556,0.279-2.144,0.126-2.909,0.055c-0.738-0.092-1.427-0.227-2.109-0.366l-1.993-0.469
					c-0.952-0.267-1.896-0.531-2.833-0.793c-0.211-0.519-0.238-1.198-0.364-1.782c-0.103-0.645-0.089-0.742-0.139-1.137
					l-0.164-1.903c-0.07-1.235-0.139-2.445-0.205-3.627c-0.205-4.697-0.232-8.874-0.205-12.366
					c0.054-6.977,0.487-11.231,0.944-11.207c0.371,0.021,0.696,4.197,1.22,11.137c0.271,3.583,0.581,7.704,0.924,12.25
					c0.108,1.156,0.217,2.338,0.329,3.545l0.211,1.806l0.102,0.741l0.022,0.046l0.054,0.003l0.86,0.208l1.869,0.401
					c0.623,0.117,1.256,0.229,1.863,0.295c0.572,0.074,1.374,0.079,1.144,0.068c0.023-0.077-0.038,0.153,0.071-0.242
					c0.138-0.454,0.262-0.952,0.363-1.5c0.219-1.062,0.385-2.196,0.542-3.336c0.334-2.496,0.58-4.982,0.803-7.403
					c0.138-1.717,0.273-3.411,0.407-5.081c0.153-2.297,0.305-4.56,0.454-6.786c1.619,2.851,3.016,5.566,4.268,7.09l1.357,1.651
					l1.018,1.137c1.372,1.479,2.793,2.802,4.186,3.998c1.386,1.206,2.779,2.243,4.076,3.206c1.237,0.885,2.484,1.478,3.699,1.799
					c2.438,0.661,4.558,0.233,5.936-0.136C689.846,3171.883,690.581,3171.529,690.69,3171.684z" class="colorc18c7c svgShape"></path></g></g><polygon fill="#941e00" points="1107.359 3096.184 946.974 3174.258 976.61 3266.558 1124.135 3249.386 1147.434 3179.575" class="color009444 svgShape"></polygon><path fill="#941e00" d="M1007.699,3556.149c0,0,315.023,44.733,343.584,7.511c28.561-37.222-91.475-471.508-108.953-478.993
			c-17.478-7.486-134.97,11.518-134.97,11.518S1034.335,3390.184,1007.699,3556.149z" class="color009444 svgShape"></path><path fill="#7c2109" d="M1351.266,3563.656c-9.303,12.087-48.744,15.507-97.884,14.632c21.549-7.315,65.123-22.9,66.238-29.341
			c1.431-8.509-24.81-24.093-33.318-29.739c-8.508-5.646,37.531-8.509,39.678-34.033c2.147-25.524-34.748-76.493-65.918-87.865
			c-27.433-9.939-168.177-77.767-201.494-93.827c0.955-4.135,1.829-8.27,2.863-12.325l32.045,8.905l42.939-23.695l158.862-0.006
			l3.986-20.271C1333.932,3384.668,1367.964,3541.948,1351.266,3563.656z" class="color097c3a svgShape"></path><g fill="#000000" class="color000000 svgShape"><path fill="#7c2109" d="M1132.625,3079.205c1.757-1.55,51.274-15.809,53.964-15.519c2.689,0.291,9.144,15.916,11.515,20.765
			c2.37,4.847-8.441,25.587-14.725,29.302c-6.285,3.715-21.702-1.571-26.46-4.589c0,0-9.167,9.83-19.819,10.739
			C1126.449,3120.812,1124.508,3086.345,1132.625,3079.205z" class="color097c3a svgShape"></path><path fill="#d79d8e" d="M1144.047,3094.907
					c12.917,1.208,41.217-22.879,37.201-32.421c-3.694-8.759-8.2-33.95-10.46-54.405l-42.393,36.007
					C1129.088,3048.699,1129.634,3093.574,1144.047,3094.907z" class="colord7a28e svgShape"></path><path fill="#d79d8e" d="M1174.015,2982.382c0.853,10.603-0.28,21.108-0.81,28.039c-1.957,26.482-51.038,47.432-54.219,47.062
					c-11.646-1.355-39.511-17.019-36.238-38.703c3.824-25.253,9.348-28.073,7.005-51.786c-0.253-2.327-0.106-4.369,0.318-6.274
					c7.612,1.006,28.668-3.086,33.45-10.22c2.438,9.187,29.342,14.203,41.319,11.313c1.597,5.574-2.392,29.509,3.645,29.58
					C1169.93,2991.43,1172.135,2987.88,1174.015,2982.382z" class="colord7a28e svgShape"></path><path fill="#c18a7c" d="M1118.979,3057.503c0.162,1.019,9.541,0.528,20.023-4.418c5.216-2.442,9.452-5.752,11.962-8.65
						c2.536-2.931,3.274-5.29,2.807-5.567c-0.527-0.339-2.084,1.282-4.869,3.384c-2.802,2.104-6.861,4.716-11.745,7.004
						C1127.427,3053.871,1118.699,3056.228,1118.979,3057.503z" class="colorc18c7c svgShape"></path><path fill="#d79d8e" d="M1170.354,3008.452c12.965,7.971,22.527-21.965,10.731-26.876c-3.406-1.419-10.128-1.927-11.755,4.857
					C1167.575,2993.752,1167.514,3006.706,1170.354,3008.452z" class="colord7a28e svgShape"></path><path fill="#533831" d="M1178.025 2987.116c-2.742 2.192-7.692 9.541-4.221 14.952 0 0-.108-3.689 1.806-5.98l4.88-2.367-4.934-.243L1178.025 2987.116zM1116.101 2994.53c2.309.853-4.739 9.431-.238 10.198 4.5.765-2.782 2.643-3.75-.906C1111.146 3000.274 1114.054 2993.775 1116.101 2994.53z" class="color11405c svgShape"></path><g fill="#000000" class="color000000 svgShape"><path fill="#533831" d="M1131.11,2987.704c-0.959,2.561,0.206,5.362,2.6,6.257c2.394,0.895,5.11-0.453,6.067-3.014
							c0.959-2.561-0.205-5.364-2.599-6.259C1134.784,2983.792,1132.068,2985.142,1131.11,2987.704z" class="color11405c svgShape"></path><path fill="#ffffff" d="M1132.152,2986.855c-0.263,0.867,0.108,1.744,0.825,1.962c0.721,0.216,1.516-0.308,1.778-1.173
						c0.262-0.866-0.11-1.746-0.829-1.962C1133.209,2985.465,1132.412,2985.99,1132.152,2986.855z" class="colorffffff svgShape"></path><path fill="#533831" d="M1151.196,2982.686c1.3,0.276,2.729-3.192,1.613-3.915c0,0-19.493-9.617-22.899-6.824
						c0,0-0.62,2.497-0.437,3.312c0.286,1.284,1.889,2.928,4.034,3.383L1151.196,2982.686z" class="color11405c svgShape"></path><g fill="#000000" class="color000000 svgShape"><path fill="#533831" d="M1098.662,2984.534c0.091,2.733,2.235,4.882,4.79,4.796c2.555-0.084,4.552-2.367,4.462-5.101
							c-0.09-2.733-2.235-4.879-4.788-4.796C1100.571,2979.52,1098.573,2981.803,1098.662,2984.534z" class="color11405c svgShape"></path><path fill="#ffffff" d="M1099.303,2983.356c0.088,0.898,0.765,1.569,1.512,1.496c0.746-0.073,1.283-0.862,1.195-1.76
						c-0.089-0.902-0.766-1.571-1.512-1.498C1099.75,2981.666,1099.213,2982.455,1099.303,2983.356z" class="colorffffff svgShape"></path><path fill="#533831" d="M1095.792,2973.625c-0.984-0.048-1.298-2.522-0.495-2.907c0,0,15.112-3.617,16.11-1.792
						c0,0,0.711,2.347,0.642,3.027c-0.11,1.068-1.211,2.159-2.84,2.078L1095.792,2973.625z" class="color11405c svgShape"></path></g></g><path fill="#ffffff" d="M1125.354,3022.715
				c-14.314,2.867-16.01-2.455-22.048-2.218c-3.302,0.131-4.944,3.009-3.761,5.619c0,0,5.647,12.268,22.139,7.416
				C1132.079,3030.476,1128.51,3022.084,1125.354,3022.715z" class="colorffffff svgShape"></path></g><g fill="#000000" class="color000000 svgShape"><path fill="#d79d8e" d="M1336.416,3217.476c0,0,51.277,81.299,53.368,94.248c2.093,12.948-59.198,28.118-70.742,13.46
			c-4.592-5.832-45.554-64.12-45.554-64.12L1336.416,3217.476z" class="colord7a28e svgShape"></path><path fill="#941e00" d="M1225.394,3082.929l28.399,0.977c0,0,93.756,130.872,112.773,160.008
			c-28.04,22.094-56.824,29.927-82.183,37.95c-25.236-31.557-26.359-35.922-40.581-60.05
			C1216.417,3162.778,1225.394,3082.929,1225.394,3082.929z" class="color009444 svgShape"></path><path fill="#7c2109" d="M1226.081,3161.107c2.343,12.456,36.309,99.634,56.583,118.601c0,0-24.549-15.201-36.347-47.134
			C1234.343,3200.167,1226.081,3161.107,1226.081,3161.107z" class="color097c3a svgShape"></path><polygon fill="#ff6239" points="1082.569 3121.958 1042.529 2997.886 1002.12 3121.958 872.903 3121.958 871.722 3121.958 977.137 3198.438 936.708 3322.51 1042.529 3246.009 1146.374 3321.308 1147.963 3322.51 1107.535 3198.438 1210.59 3123.931 1210.975 3123.543 1212.969 3121.958" class="colorffc439 svgShape"></polygon><path fill="#db502c" d="M1023.342,3194.523l5.055-7.055c3.626,3.432,8.107,6.483,14.21,6.483
						c6.771,0,11.729-4.29,11.729-11.636c0-7.249-4.481-11.349-11.155-11.349c-3.914,0-6.104,1.048-9.73,3.436l-5.245-3.339
						l1.813-29.946h32.424v9.252h-22.888l-1.239,14.684c2.574-1.239,4.865-2,8.01-2c10.394,0,19.075,5.909,19.075,18.978
						c0,13.255-10.207,20.884-21.362,20.884C1034.217,3202.917,1027.827,3199.007,1023.342,3194.523z" class="colordba12c svgShape"></path><path fill="#d79d8e" d="M1116.966,3236.203c-6.728,1.007-5.693,7.854-5.693,7.854l3.156,20.936l-51.982-12.963
				c0,0-3.73,4.505-0.872,7.451c1.306,1.349,26.131,10.31,26.131,10.31l-34.721-8.632c0,0-3.315,5.39-0.029,7.135
				c1.573,0.836,31.942,13.857,31.942,13.857l-32.14-8.646c0,0-0.337,6.884,0.877,7.535c6.257,3.357,29.554,13.116,29.554,13.116
				l-23.211-7.228c0,0-2.513,5.454,2.319,7.093c5.789,1.96,32.632,14.54,42.149,15.856c12.464,1.726,47.551,16.517,47.551,16.517
				s12.5-39.679,13.786-42.902c-4.785-1.511-21.793-7.134-21.793-7.134C1133.578,3265.116,1130.352,3252.924,1116.966,3236.203z" class="colord7a28e svgShape"></path><path fill="#d79d8e" d="M1143.99,3276.36c0,0,175.664,19.006,183.559,18.125c7.894-0.882,65.739,6.544,62.64,21.816
				c-3.099,15.271-2.961,68.557-37.726,65.837c-81.55-6.384-222.64-64.333-222.64-64.333l16.06-39.28" class="colord7a28e svgShape"></path><path fill="#c18a7c" d="M1232.36 3286.304c0 0 92.683 4.055 122.065 11.045C1354.425 3297.349 1310.923 3308.33 1232.36 3286.304zM1092.611 3270.814c-.159.58-3.687.121-7.883-1.017-4.193-1.142-7.468-2.536-7.311-3.112.155-.578 3.684-.121 7.881 1.021C1089.491 3268.847 1092.766 3270.238 1092.611 3270.814zM1090.38 3283.536c-.182.569-3.483.02-7.37-1.229-3.886-1.249-6.886-2.723-6.704-3.292.184-.569 3.483-.02 7.368 1.23C1087.561 3281.494 1090.564 3282.967 1090.38 3283.536zM1089.29 3295.597c-.167.575-2.945.275-6.206-.667-3.258-.945-5.767-2.176-5.601-2.751.167-.575 2.945-.276 6.204.67C1086.949 3293.792 1089.456 3295.024 1089.29 3295.597z" class="colorc18c7c svgShape"></path><path fill="#c18a7c" d="M1090.145 3290.675c.513.395-.275 2.016-.543 3.937-.326 1.929-.026 3.606-.544 3.889-.506.353-2.017-1.528-1.6-4.216C1087.891 3291.603 1089.759 3290.299 1090.145 3290.675zM1091.27 3279.344c.509.394-.277 2.013-.547 3.937-.323 1.928-.025 3.606-.544 3.888-.504.353-2.016-1.527-1.597-4.216C1089.013 3280.271 1090.883 3278.967 1091.27 3279.344z" class="colorc18c7c svgShape"></path><g fill="#000000" class="color000000 svgShape"><path fill="#c18a7c" d="M1093.276,3267.319c0.511,0.394-0.275,2.015-0.545,3.937c-0.326,1.927-0.024,3.604-0.542,3.889
					c-0.509,0.351-2.017-1.527-1.6-4.216C1091.02,3268.245,1092.888,3266.941,1093.276,3267.319z" class="colorc18c7c svgShape"></path></g></g></g><g fill="#000000" class="color000000 svgShape"><path fill="#f6a691" d="M1345.192,2862.555c-17.55-25.248-39.961-3.25-39.961-3.25s-22.413-21.999-39.962,3.25
					c-18.521,26.64,16.569,67.602,39.962,78.65C1328.622,2930.157,1363.712,2889.196,1345.192,2862.555z" class="color91c4f6 svgShape"></path><path fill="#ffd7cd" d="M996.926,2923.95c-11.532-16.591-26.259-2.135-26.259-2.135s-14.728-14.455-26.261,2.135
					c-12.17,17.506,10.888,44.423,26.261,51.683C986.038,2968.372,1009.095,2941.456,996.926,2923.95z" class="colorcdeeff svgShape"></path><path fill="#f6a691" d="M-490.87,3515.195l41.648-0.123l0.22,79.47l-41.639,0.125c-6.768,0.013-12.269-5.46-12.287-12.228
			l-0.165-54.95C-503.116,3520.715-497.643,3515.214-490.87,3515.195z" class="color91c4f6 svgShape"></path><path fill="#ffd7cd" d="M-361.886,3540.501h-0.404l-0.046-13.698c-0.009-7.264-5.919-13.137-13.188-13.114l-36.914,0.105
			c0,0,14.969-20.98,14.933-34.402c-0.032-12.007-0.62-27.918-18.339-27.872c0,0-6.424,3.981-6.374,22.027
			c0.046,16.65-34.246,41.446-34.246,41.446l0.234,82.152c0,0,7.54,6.952,19.354,6.924l53.421-0.152
			c7.563-0.022,13.679-6.171,13.656-13.733l-0.022-8.317c4.445-0.022,8.044-3.636,8.026-8.086l-0.023-9.666
			c2.667,0,4.821-2.177,4.816-4.844l-0.041-13.955C-357.051,3542.646-359.223,3540.492-361.886,3540.501z" class="colorcdeeff svgShape"></path><g fill="#000000" class="color000000 svgShape"><path fill="#f6a691" d="M1162.091,2716.846l-29.524-0.087l-0.157,56.338l29.519,0.088c4.798,0.009,8.698-3.87,8.711-8.669
			l0.117-38.955C1170.773,2720.76,1166.893,2716.86,1162.091,2716.846z" class="color91c4f6 svgShape"></path><path fill="#ffd7cd" d="M1070.653,2734.786h0.286l0.032-9.71c0.007-5.15,4.197-9.313,9.349-9.297l26.169,0.074
			c0,0-10.612-14.873-10.586-24.388c0.023-8.512,0.44-19.792,13.001-19.759c0,0,4.555,2.822,4.519,15.615
			c-0.032,11.803,24.278,29.382,24.278,29.382l-0.167,58.239c0,0-5.344,4.928-13.72,4.909l-37.872-0.108
			c-5.361-0.016-9.697-4.375-9.681-9.737l0.017-5.895c-3.151-0.016-5.703-2.578-5.691-5.732l0.016-6.852
			c-1.891,0-3.418-1.543-3.414-3.435l0.03-9.893C1067.225,2736.306,1068.765,2734.78,1070.653,2734.786z" class="colorcdeeff svgShape"></path></g></g><g fill="#000000" class="color000000 svgShape"><polygon fill="#f6a691" points="-95.718 4363.839 -383.383 4312.556 -328.507 3897.809 -76.985 3919.709" class="color91c4f6 svgShape"></polygon><polygon fill="#ffd7cd" points="-328.507 3897.809 -76.985 3919.709 -78.349 3938.385" class="colorcdeeff svgShape"></polygon><polygon fill="#ec7354" points="-76.985 3919.709 -65.564 3929.492 -57.198 3921.434 -34.55 4337.054 -56.807 4342.141 -95.718 4363.839" class="color549bec svgShape"></polygon><path fill="#ec7354" d="M-264.114 3963.419c0 6.007-3.478 10.876-7.769 10.876-4.29 0-7.768-4.869-7.768-10.876 0-6.006 3.478-10.876 7.768-10.876C-267.592 3952.543-264.114 3957.413-264.114 3963.419zM-166.652 3968.127c0 5.824-3.373 10.546-7.534 10.546-4.16 0-7.533-4.722-7.533-10.546 0-5.825 3.373-10.547 7.533-10.547C-170.025 3957.581-166.652 3962.303-166.652 3968.127z" class="color549bec svgShape"></path><path fill="#ffd7cd" d="M-276.182,3963.154c-2.885,16.952-5.772,33.903-8.657,50.855c-2.479,14.562-5.686,29.257-6.219,44.06
				c-0.959,26.616,11.936,49.089,36.567,59.991c12.495,5.531,26.313,7.491,39.898,7.336c10.176-0.117,22.148-0.998,28.599-10.035
				c7.311-10.243,0.014-20.547-7.181-28.478c-8.418-9.279-28.149-17.023-27.385-31.388c0.524-9.837,8.155-17.249,14.462-23.963
				c5.19-5.524,10.107-11.264,14.62-17.356c8.129-10.975,21.242-27.501,19.622-42.056c-0.419-3.76-6.367-3.803-5.944,0
				c1.375,12.355-10.249,27.172-17.18,36.82c-7.283,10.139-16.636,18.392-24.107,28.304c-5.622,7.458-9.522,17.249-6.212,26.533
				c3.312,9.289,12.763,13.92,19.942,19.758c5.051,4.107,9.939,8.981,13.475,14.47c5.908,9.174,1.097,17.153-8.638,20.031
				c-12.178,3.601-28.146,1.638-40.176-1.478c-27.493-7.12-45.101-28.407-44.47-57.102c0.335-15.243,3.77-30.425,6.321-45.409
				c2.798-16.438,5.596-32.876,8.395-49.314C-269.813,3960.992-275.54,3959.384-276.182,3963.154L-276.182,3963.154z" class="colorcdeeff svgShape"></path><g fill="#000000" class="color000000 svgShape"><polygon fill="#ff6239" points="-594.772 4137.004 -361.881 4087.526 -128.99 4121.696 -357.78 4200.593" class="colorffc439 svgShape"></polygon><polygon fill="#db502c" points="-351.449 4437.728 -124.785 4382.381 -128.99 4121.696 -358.582 4170.549" class="colordba12c svgShape"></polygon><polygon fill="#ffd7cd" points="-490.562 4114.865 -417.695 4099.816 -211.3 4137.86 -208.794 4190.239 -237.477 4199.103 -242.796 4190.564 -245.58 4202.67 -267.48 4210.241 -268.21 4154.145" opacity=".5" class="colorcdeeff svgShape"></polygon><polygon fill="#ffd7cd" points="-242.591 4411.241 -242.722 4370.574 -228.661 4367.843 -225.565 4372.811 -223.946 4365.858 -187.167 4355.423 -182.853 4396.618" opacity=".5" class="colorcdeeff svgShape"></polygon><polygon fill="#ff6239" points="-594.772 4137.004 -587.286 4404.78 -351.449 4437.728 -358.582 4170.549" class="colorffc439 svgShape"></polygon><path fill="#db502c" d="M-594.772,4137.004l236.19,33.544c0,0-73.69,8.67-122.628,0
				C-530.147,4161.879-594.772,4137.004-594.772,4137.004z" class="colordba12c svgShape"></path><g fill="#000000" class="color000000 svgShape"><polygon fill="#ff6239" points="-268.21 4199.787 -83.94 4160.638 100.33 4187.675 -80.695 4250.1" class="colorffc439 svgShape"></polygon><polygon fill="#db502c" points="-75.686 4437.728 103.658 4393.936 100.33 4187.675 -81.33 4226.328" class="colordba12c svgShape"></polygon><polygon fill="#ffd7cd" points="-185.756 4182.27 -128.101 4170.362 35.204 4200.464 37.187 4241.908 14.492 4248.921 10.284 4242.164 8.081 4251.743 -9.247 4257.734 -9.825 4213.349" opacity=".5" class="colorcdeeff svgShape"></polygon><polygon fill="#ffd7cd" points="10.446 4416.771 10.342 4384.594 21.467 4382.434 23.917 4386.364 25.198 4380.862 54.299 4372.606 57.713 4405.201" opacity=".5" class="colorcdeeff svgShape"></polygon><polygon fill="#ff6239" points="-268.21 4199.787 -262.287 4411.659 -75.686 4437.728 -81.33 4226.328" class="colorffc439 svgShape"></polygon><path fill="#db502c" d="M-268.21,4199.787l186.88,26.541c0,0-58.305,6.861-97.026,0
				C-217.077,4219.469-268.21,4199.787-268.21,4199.787z" class="colordba12c svgShape"></path></g></g></g></svg>